<?xml version="1.0" encoding="utf-8" standalone="no"?>
<!DOCTYPE svg PUBLIC "-//W3C//DTD SVG 1.1//EN"
  "http://www.w3.org/Graphics/SVG/1.1/DTD/svg11.dtd">
<svg xmlns:xlink="http://www.w3.org/1999/xlink" width="1152pt" height="792pt" viewBox="0 0 1152 792" xmlns="http://www.w3.org/2000/svg" version="1.1">
 <metadata>
  <rdf:RDF xmlns:dc="http://purl.org/dc/elements/1.1/" xmlns:cc="http://creativecommons.org/ns#" xmlns:rdf="http://www.w3.org/1999/02/22-rdf-syntax-ns#">
   <cc:Work>
    <dc:type rdf:resource="http://purl.org/dc/dcmitype/StillImage"/>
    <dc:date>2022-02-08T16:36:24.907462</dc:date>
    <dc:format>image/svg+xml</dc:format>
    <dc:creator>
     <cc:Agent>
      <dc:title>Matplotlib v3.5.1, https://matplotlib.org/</dc:title>
     </cc:Agent>
    </dc:creator>
   </cc:Work>
  </rdf:RDF>
 </metadata>
 <defs>
  <style type="text/css">*{stroke-linejoin: round; stroke-linecap: butt}</style>
 </defs>
 <g id="figure_1">
  <g id="patch_1">
   <path d="M 0 792 
L 1152 792 
L 1152 0 
L 0 0 
z
" style="fill: #ffffff"/>
  </g>
  <g id="axes_1">
   <g id="patch_2">
    <path d="M 144 704.88 
L 1036.8 704.88 
L 1036.8 95.04 
L 144 95.04 
z
" style="fill: #ffffff"/>
   </g>
   <g id="matplotlib.axis_1">
    <g id="xtick_1">
     <g id="line2d_1">
      <defs>
       <path id="me641beb28c" d="M 0 0 
L 0 3.5 
" style="stroke: #000000; stroke-width: 0.8"/>
      </defs>
      <g>
       <use xlink:href="#me641beb28c" x="144" y="704.88" style="stroke: #000000; stroke-width: 0.8"/>
      </g>
     </g>
     <g id="text_1">
      <!-- 0 -->
      <g transform="translate(140.81875 719.478438)scale(0.1 -0.1)">
       <defs>
        <path id="DejaVuSans-30" d="M 2034 4250 
Q 1547 4250 1301 3770 
Q 1056 3291 1056 2328 
Q 1056 1369 1301 889 
Q 1547 409 2034 409 
Q 2525 409 2770 889 
Q 3016 1369 3016 2328 
Q 3016 3291 2770 3770 
Q 2525 4250 2034 4250 
z
M 2034 4750 
Q 2819 4750 3233 4129 
Q 3647 3509 3647 2328 
Q 3647 1150 3233 529 
Q 2819 -91 2034 -91 
Q 1250 -91 836 529 
Q 422 1150 422 2328 
Q 422 3509 836 4129 
Q 1250 4750 2034 4750 
z
" transform="scale(0.015625)"/>
       </defs>
       <use xlink:href="#DejaVuSans-30"/>
      </g>
     </g>
    </g>
    <g id="xtick_2">
     <g id="line2d_2">
      <g>
       <use xlink:href="#me641beb28c" x="292.8" y="704.88" style="stroke: #000000; stroke-width: 0.8"/>
      </g>
     </g>
     <g id="text_2">
      <!-- 20000 -->
      <g transform="translate(276.89375 719.478438)scale(0.1 -0.1)">
       <defs>
        <path id="DejaVuSans-32" d="M 1228 531 
L 3431 531 
L 3431 0 
L 469 0 
L 469 531 
Q 828 903 1448 1529 
Q 2069 2156 2228 2338 
Q 2531 2678 2651 2914 
Q 2772 3150 2772 3378 
Q 2772 3750 2511 3984 
Q 2250 4219 1831 4219 
Q 1534 4219 1204 4116 
Q 875 4013 500 3803 
L 500 4441 
Q 881 4594 1212 4672 
Q 1544 4750 1819 4750 
Q 2544 4750 2975 4387 
Q 3406 4025 3406 3419 
Q 3406 3131 3298 2873 
Q 3191 2616 2906 2266 
Q 2828 2175 2409 1742 
Q 1991 1309 1228 531 
z
" transform="scale(0.015625)"/>
       </defs>
       <use xlink:href="#DejaVuSans-32"/>
       <use xlink:href="#DejaVuSans-30" x="63.623047"/>
       <use xlink:href="#DejaVuSans-30" x="127.246094"/>
       <use xlink:href="#DejaVuSans-30" x="190.869141"/>
       <use xlink:href="#DejaVuSans-30" x="254.492188"/>
      </g>
     </g>
    </g>
    <g id="xtick_3">
     <g id="line2d_3">
      <g>
       <use xlink:href="#me641beb28c" x="441.6" y="704.88" style="stroke: #000000; stroke-width: 0.8"/>
      </g>
     </g>
     <g id="text_3">
      <!-- 40000 -->
      <g transform="translate(425.69375 719.478438)scale(0.1 -0.1)">
       <defs>
        <path id="DejaVuSans-34" d="M 2419 4116 
L 825 1625 
L 2419 1625 
L 2419 4116 
z
M 2253 4666 
L 3047 4666 
L 3047 1625 
L 3713 1625 
L 3713 1100 
L 3047 1100 
L 3047 0 
L 2419 0 
L 2419 1100 
L 313 1100 
L 313 1709 
L 2253 4666 
z
" transform="scale(0.015625)"/>
       </defs>
       <use xlink:href="#DejaVuSans-34"/>
       <use xlink:href="#DejaVuSans-30" x="63.623047"/>
       <use xlink:href="#DejaVuSans-30" x="127.246094"/>
       <use xlink:href="#DejaVuSans-30" x="190.869141"/>
       <use xlink:href="#DejaVuSans-30" x="254.492188"/>
      </g>
     </g>
    </g>
    <g id="xtick_4">
     <g id="line2d_4">
      <g>
       <use xlink:href="#me641beb28c" x="590.4" y="704.88" style="stroke: #000000; stroke-width: 0.8"/>
      </g>
     </g>
     <g id="text_4">
      <!-- 60000 -->
      <g transform="translate(574.49375 719.478438)scale(0.1 -0.1)">
       <defs>
        <path id="DejaVuSans-36" d="M 2113 2584 
Q 1688 2584 1439 2293 
Q 1191 2003 1191 1497 
Q 1191 994 1439 701 
Q 1688 409 2113 409 
Q 2538 409 2786 701 
Q 3034 994 3034 1497 
Q 3034 2003 2786 2293 
Q 2538 2584 2113 2584 
z
M 3366 4563 
L 3366 3988 
Q 3128 4100 2886 4159 
Q 2644 4219 2406 4219 
Q 1781 4219 1451 3797 
Q 1122 3375 1075 2522 
Q 1259 2794 1537 2939 
Q 1816 3084 2150 3084 
Q 2853 3084 3261 2657 
Q 3669 2231 3669 1497 
Q 3669 778 3244 343 
Q 2819 -91 2113 -91 
Q 1303 -91 875 529 
Q 447 1150 447 2328 
Q 447 3434 972 4092 
Q 1497 4750 2381 4750 
Q 2619 4750 2861 4703 
Q 3103 4656 3366 4563 
z
" transform="scale(0.015625)"/>
       </defs>
       <use xlink:href="#DejaVuSans-36"/>
       <use xlink:href="#DejaVuSans-30" x="63.623047"/>
       <use xlink:href="#DejaVuSans-30" x="127.246094"/>
       <use xlink:href="#DejaVuSans-30" x="190.869141"/>
       <use xlink:href="#DejaVuSans-30" x="254.492188"/>
      </g>
     </g>
    </g>
    <g id="xtick_5">
     <g id="line2d_5">
      <g>
       <use xlink:href="#me641beb28c" x="739.2" y="704.88" style="stroke: #000000; stroke-width: 0.8"/>
      </g>
     </g>
     <g id="text_5">
      <!-- 80000 -->
      <g transform="translate(723.29375 719.478438)scale(0.1 -0.1)">
       <defs>
        <path id="DejaVuSans-38" d="M 2034 2216 
Q 1584 2216 1326 1975 
Q 1069 1734 1069 1313 
Q 1069 891 1326 650 
Q 1584 409 2034 409 
Q 2484 409 2743 651 
Q 3003 894 3003 1313 
Q 3003 1734 2745 1975 
Q 2488 2216 2034 2216 
z
M 1403 2484 
Q 997 2584 770 2862 
Q 544 3141 544 3541 
Q 544 4100 942 4425 
Q 1341 4750 2034 4750 
Q 2731 4750 3128 4425 
Q 3525 4100 3525 3541 
Q 3525 3141 3298 2862 
Q 3072 2584 2669 2484 
Q 3125 2378 3379 2068 
Q 3634 1759 3634 1313 
Q 3634 634 3220 271 
Q 2806 -91 2034 -91 
Q 1263 -91 848 271 
Q 434 634 434 1313 
Q 434 1759 690 2068 
Q 947 2378 1403 2484 
z
M 1172 3481 
Q 1172 3119 1398 2916 
Q 1625 2713 2034 2713 
Q 2441 2713 2670 2916 
Q 2900 3119 2900 3481 
Q 2900 3844 2670 4047 
Q 2441 4250 2034 4250 
Q 1625 4250 1398 4047 
Q 1172 3844 1172 3481 
z
" transform="scale(0.015625)"/>
       </defs>
       <use xlink:href="#DejaVuSans-38"/>
       <use xlink:href="#DejaVuSans-30" x="63.623047"/>
       <use xlink:href="#DejaVuSans-30" x="127.246094"/>
       <use xlink:href="#DejaVuSans-30" x="190.869141"/>
       <use xlink:href="#DejaVuSans-30" x="254.492188"/>
      </g>
     </g>
    </g>
    <g id="xtick_6">
     <g id="line2d_6">
      <g>
       <use xlink:href="#me641beb28c" x="888" y="704.88" style="stroke: #000000; stroke-width: 0.8"/>
      </g>
     </g>
     <g id="text_6">
      <!-- 100000 -->
      <g transform="translate(868.9125 719.478438)scale(0.1 -0.1)">
       <defs>
        <path id="DejaVuSans-31" d="M 794 531 
L 1825 531 
L 1825 4091 
L 703 3866 
L 703 4441 
L 1819 4666 
L 2450 4666 
L 2450 531 
L 3481 531 
L 3481 0 
L 794 0 
L 794 531 
z
" transform="scale(0.015625)"/>
       </defs>
       <use xlink:href="#DejaVuSans-31"/>
       <use xlink:href="#DejaVuSans-30" x="63.623047"/>
       <use xlink:href="#DejaVuSans-30" x="127.246094"/>
       <use xlink:href="#DejaVuSans-30" x="190.869141"/>
       <use xlink:href="#DejaVuSans-30" x="254.492188"/>
       <use xlink:href="#DejaVuSans-30" x="318.115234"/>
      </g>
     </g>
    </g>
    <g id="xtick_7">
     <g id="line2d_7">
      <g>
       <use xlink:href="#me641beb28c" x="1036.8" y="704.88" style="stroke: #000000; stroke-width: 0.8"/>
      </g>
     </g>
     <g id="text_7">
      <!-- 120000 -->
      <g transform="translate(1017.7125 719.478438)scale(0.1 -0.1)">
       <use xlink:href="#DejaVuSans-31"/>
       <use xlink:href="#DejaVuSans-32" x="63.623047"/>
       <use xlink:href="#DejaVuSans-30" x="127.246094"/>
       <use xlink:href="#DejaVuSans-30" x="190.869141"/>
       <use xlink:href="#DejaVuSans-30" x="254.492188"/>
       <use xlink:href="#DejaVuSans-30" x="318.115234"/>
      </g>
     </g>
    </g>
    <g id="text_8">
     <!-- Message generation -->
     <g transform="translate(539.703125 733.156563)scale(0.1 -0.1)">
      <defs>
       <path id="DejaVuSans-4d" d="M 628 4666 
L 1569 4666 
L 2759 1491 
L 3956 4666 
L 4897 4666 
L 4897 0 
L 4281 0 
L 4281 4097 
L 3078 897 
L 2444 897 
L 1241 4097 
L 1241 0 
L 628 0 
L 628 4666 
z
" transform="scale(0.015625)"/>
       <path id="DejaVuSans-65" d="M 3597 1894 
L 3597 1613 
L 953 1613 
Q 991 1019 1311 708 
Q 1631 397 2203 397 
Q 2534 397 2845 478 
Q 3156 559 3463 722 
L 3463 178 
Q 3153 47 2828 -22 
Q 2503 -91 2169 -91 
Q 1331 -91 842 396 
Q 353 884 353 1716 
Q 353 2575 817 3079 
Q 1281 3584 2069 3584 
Q 2775 3584 3186 3129 
Q 3597 2675 3597 1894 
z
M 3022 2063 
Q 3016 2534 2758 2815 
Q 2500 3097 2075 3097 
Q 1594 3097 1305 2825 
Q 1016 2553 972 2059 
L 3022 2063 
z
" transform="scale(0.015625)"/>
       <path id="DejaVuSans-73" d="M 2834 3397 
L 2834 2853 
Q 2591 2978 2328 3040 
Q 2066 3103 1784 3103 
Q 1356 3103 1142 2972 
Q 928 2841 928 2578 
Q 928 2378 1081 2264 
Q 1234 2150 1697 2047 
L 1894 2003 
Q 2506 1872 2764 1633 
Q 3022 1394 3022 966 
Q 3022 478 2636 193 
Q 2250 -91 1575 -91 
Q 1294 -91 989 -36 
Q 684 19 347 128 
L 347 722 
Q 666 556 975 473 
Q 1284 391 1588 391 
Q 1994 391 2212 530 
Q 2431 669 2431 922 
Q 2431 1156 2273 1281 
Q 2116 1406 1581 1522 
L 1381 1569 
Q 847 1681 609 1914 
Q 372 2147 372 2553 
Q 372 3047 722 3315 
Q 1072 3584 1716 3584 
Q 2034 3584 2315 3537 
Q 2597 3491 2834 3397 
z
" transform="scale(0.015625)"/>
       <path id="DejaVuSans-61" d="M 2194 1759 
Q 1497 1759 1228 1600 
Q 959 1441 959 1056 
Q 959 750 1161 570 
Q 1363 391 1709 391 
Q 2188 391 2477 730 
Q 2766 1069 2766 1631 
L 2766 1759 
L 2194 1759 
z
M 3341 1997 
L 3341 0 
L 2766 0 
L 2766 531 
Q 2569 213 2275 61 
Q 1981 -91 1556 -91 
Q 1019 -91 701 211 
Q 384 513 384 1019 
Q 384 1609 779 1909 
Q 1175 2209 1959 2209 
L 2766 2209 
L 2766 2266 
Q 2766 2663 2505 2880 
Q 2244 3097 1772 3097 
Q 1472 3097 1187 3025 
Q 903 2953 641 2809 
L 641 3341 
Q 956 3463 1253 3523 
Q 1550 3584 1831 3584 
Q 2591 3584 2966 3190 
Q 3341 2797 3341 1997 
z
" transform="scale(0.015625)"/>
       <path id="DejaVuSans-67" d="M 2906 1791 
Q 2906 2416 2648 2759 
Q 2391 3103 1925 3103 
Q 1463 3103 1205 2759 
Q 947 2416 947 1791 
Q 947 1169 1205 825 
Q 1463 481 1925 481 
Q 2391 481 2648 825 
Q 2906 1169 2906 1791 
z
M 3481 434 
Q 3481 -459 3084 -895 
Q 2688 -1331 1869 -1331 
Q 1566 -1331 1297 -1286 
Q 1028 -1241 775 -1147 
L 775 -588 
Q 1028 -725 1275 -790 
Q 1522 -856 1778 -856 
Q 2344 -856 2625 -561 
Q 2906 -266 2906 331 
L 2906 616 
Q 2728 306 2450 153 
Q 2172 0 1784 0 
Q 1141 0 747 490 
Q 353 981 353 1791 
Q 353 2603 747 3093 
Q 1141 3584 1784 3584 
Q 2172 3584 2450 3431 
Q 2728 3278 2906 2969 
L 2906 3500 
L 3481 3500 
L 3481 434 
z
" transform="scale(0.015625)"/>
       <path id="DejaVuSans-20" transform="scale(0.015625)"/>
       <path id="DejaVuSans-6e" d="M 3513 2113 
L 3513 0 
L 2938 0 
L 2938 2094 
Q 2938 2591 2744 2837 
Q 2550 3084 2163 3084 
Q 1697 3084 1428 2787 
Q 1159 2491 1159 1978 
L 1159 0 
L 581 0 
L 581 3500 
L 1159 3500 
L 1159 2956 
Q 1366 3272 1645 3428 
Q 1925 3584 2291 3584 
Q 2894 3584 3203 3211 
Q 3513 2838 3513 2113 
z
" transform="scale(0.015625)"/>
       <path id="DejaVuSans-72" d="M 2631 2963 
Q 2534 3019 2420 3045 
Q 2306 3072 2169 3072 
Q 1681 3072 1420 2755 
Q 1159 2438 1159 1844 
L 1159 0 
L 581 0 
L 581 3500 
L 1159 3500 
L 1159 2956 
Q 1341 3275 1631 3429 
Q 1922 3584 2338 3584 
Q 2397 3584 2469 3576 
Q 2541 3569 2628 3553 
L 2631 2963 
z
" transform="scale(0.015625)"/>
       <path id="DejaVuSans-74" d="M 1172 4494 
L 1172 3500 
L 2356 3500 
L 2356 3053 
L 1172 3053 
L 1172 1153 
Q 1172 725 1289 603 
Q 1406 481 1766 481 
L 2356 481 
L 2356 0 
L 1766 0 
Q 1100 0 847 248 
Q 594 497 594 1153 
L 594 3053 
L 172 3053 
L 172 3500 
L 594 3500 
L 594 4494 
L 1172 4494 
z
" transform="scale(0.015625)"/>
       <path id="DejaVuSans-69" d="M 603 3500 
L 1178 3500 
L 1178 0 
L 603 0 
L 603 3500 
z
M 603 4863 
L 1178 4863 
L 1178 4134 
L 603 4134 
L 603 4863 
z
" transform="scale(0.015625)"/>
       <path id="DejaVuSans-6f" d="M 1959 3097 
Q 1497 3097 1228 2736 
Q 959 2375 959 1747 
Q 959 1119 1226 758 
Q 1494 397 1959 397 
Q 2419 397 2687 759 
Q 2956 1122 2956 1747 
Q 2956 2369 2687 2733 
Q 2419 3097 1959 3097 
z
M 1959 3584 
Q 2709 3584 3137 3096 
Q 3566 2609 3566 1747 
Q 3566 888 3137 398 
Q 2709 -91 1959 -91 
Q 1206 -91 779 398 
Q 353 888 353 1747 
Q 353 2609 779 3096 
Q 1206 3584 1959 3584 
z
" transform="scale(0.015625)"/>
      </defs>
      <use xlink:href="#DejaVuSans-4d"/>
      <use xlink:href="#DejaVuSans-65" x="86.279297"/>
      <use xlink:href="#DejaVuSans-73" x="147.802734"/>
      <use xlink:href="#DejaVuSans-73" x="199.902344"/>
      <use xlink:href="#DejaVuSans-61" x="252.001953"/>
      <use xlink:href="#DejaVuSans-67" x="313.28125"/>
      <use xlink:href="#DejaVuSans-65" x="376.757812"/>
      <use xlink:href="#DejaVuSans-20" x="438.28125"/>
      <use xlink:href="#DejaVuSans-67" x="470.068359"/>
      <use xlink:href="#DejaVuSans-65" x="533.544922"/>
      <use xlink:href="#DejaVuSans-6e" x="595.068359"/>
      <use xlink:href="#DejaVuSans-65" x="658.447266"/>
      <use xlink:href="#DejaVuSans-72" x="719.970703"/>
      <use xlink:href="#DejaVuSans-61" x="761.083984"/>
      <use xlink:href="#DejaVuSans-74" x="822.363281"/>
      <use xlink:href="#DejaVuSans-69" x="861.572266"/>
      <use xlink:href="#DejaVuSans-6f" x="889.355469"/>
      <use xlink:href="#DejaVuSans-6e" x="950.537109"/>
     </g>
    </g>
   </g>
   <g id="matplotlib.axis_2">
    <g id="ytick_1">
     <g id="line2d_8">
      <defs>
       <path id="m34e9e64303" d="M 0 0 
L -3.5 0 
" style="stroke: #000000; stroke-width: 0.8"/>
      </defs>
      <g>
       <use xlink:href="#m34e9e64303" x="144" y="704.88" style="stroke: #000000; stroke-width: 0.8"/>
      </g>
     </g>
     <g id="text_9">
      <!-- 0 -->
      <g transform="translate(130.6375 708.679219)scale(0.1 -0.1)">
       <use xlink:href="#DejaVuSans-30"/>
      </g>
     </g>
    </g>
    <g id="ytick_2">
     <g id="line2d_9">
      <g>
       <use xlink:href="#m34e9e64303" x="144" y="582.912" style="stroke: #000000; stroke-width: 0.8"/>
      </g>
     </g>
     <g id="text_10">
      <!-- 2 -->
      <g transform="translate(130.6375 586.711219)scale(0.1 -0.1)">
       <use xlink:href="#DejaVuSans-32"/>
      </g>
     </g>
    </g>
    <g id="ytick_3">
     <g id="line2d_10">
      <g>
       <use xlink:href="#m34e9e64303" x="144" y="460.944" style="stroke: #000000; stroke-width: 0.8"/>
      </g>
     </g>
     <g id="text_11">
      <!-- 4 -->
      <g transform="translate(130.6375 464.743219)scale(0.1 -0.1)">
       <use xlink:href="#DejaVuSans-34"/>
      </g>
     </g>
    </g>
    <g id="ytick_4">
     <g id="line2d_11">
      <g>
       <use xlink:href="#m34e9e64303" x="144" y="338.976" style="stroke: #000000; stroke-width: 0.8"/>
      </g>
     </g>
     <g id="text_12">
      <!-- 6 -->
      <g transform="translate(130.6375 342.775219)scale(0.1 -0.1)">
       <use xlink:href="#DejaVuSans-36"/>
      </g>
     </g>
    </g>
    <g id="ytick_5">
     <g id="line2d_12">
      <g>
       <use xlink:href="#m34e9e64303" x="144" y="217.008" style="stroke: #000000; stroke-width: 0.8"/>
      </g>
     </g>
     <g id="text_13">
      <!-- 8 -->
      <g transform="translate(130.6375 220.807219)scale(0.1 -0.1)">
       <use xlink:href="#DejaVuSans-38"/>
      </g>
     </g>
    </g>
    <g id="ytick_6">
     <g id="line2d_13">
      <g>
       <use xlink:href="#m34e9e64303" x="144" y="95.04" style="stroke: #000000; stroke-width: 0.8"/>
      </g>
     </g>
     <g id="text_14">
      <!-- 10 -->
      <g transform="translate(124.275 98.839219)scale(0.1 -0.1)">
       <use xlink:href="#DejaVuSans-31"/>
       <use xlink:href="#DejaVuSans-30" x="63.623047"/>
      </g>
     </g>
    </g>
    <g id="text_15">
     <!-- Rating -->
     <g transform="translate(118.195312 416.077969)rotate(-90)scale(0.1 -0.1)">
      <defs>
       <path id="DejaVuSans-52" d="M 2841 2188 
Q 3044 2119 3236 1894 
Q 3428 1669 3622 1275 
L 4263 0 
L 3584 0 
L 2988 1197 
Q 2756 1666 2539 1819 
Q 2322 1972 1947 1972 
L 1259 1972 
L 1259 0 
L 628 0 
L 628 4666 
L 2053 4666 
Q 2853 4666 3247 4331 
Q 3641 3997 3641 3322 
Q 3641 2881 3436 2590 
Q 3231 2300 2841 2188 
z
M 1259 4147 
L 1259 2491 
L 2053 2491 
Q 2509 2491 2742 2702 
Q 2975 2913 2975 3322 
Q 2975 3731 2742 3939 
Q 2509 4147 2053 4147 
L 1259 4147 
z
" transform="scale(0.015625)"/>
      </defs>
      <use xlink:href="#DejaVuSans-52"/>
      <use xlink:href="#DejaVuSans-61" x="67.232422"/>
      <use xlink:href="#DejaVuSans-74" x="128.511719"/>
      <use xlink:href="#DejaVuSans-69" x="167.720703"/>
      <use xlink:href="#DejaVuSans-6e" x="195.503906"/>
      <use xlink:href="#DejaVuSans-67" x="258.882812"/>
     </g>
    </g>
   </g>
   <g id="line2d_14">
    <path d="M 144 159.0732 
L 151.44 165.78144 
L 158.88 173.70936 
L 166.32 181.63728 
L 173.76 190.17504 
L 181.2 199.32264 
L 188.64 208.47024 
L 196.08 218.83752 
L 203.52 229.2048 
L 210.96 240.18192 
L 218.4 251.76888 
L 225.84 263.35584 
L 233.28 275.55264 
L 240.72 287.74944 
L 248.16 300.55608 
L 255.6 313.36272 
L 263.04 326.7792 
L 270.48 339.58584 
L 277.92 353.61216 
L 285.36 367.02864 
L 292.8 380.44512 
L 300.24 394.47144 
L 307.68 407.88792 
L 315.12 421.91424 
L 322.56 435.33072 
L 330 448.7472 
L 337.44 462.16368 
L 344.88 475.58016 
L 352.32 488.3868 
L 359.76 501.80328 
L 367.2 514.00008 
L 374.64 526.19688 
L 382.08 538.39368 
L 389.52 549.98064 
L 396.96 561.5676 
L 404.4 572.54472 
L 411.84 582.912 
L 419.28 592.66944 
L 426.72 602.42688 
L 434.16 611.57448 
L 441.6 620.11224 
L 449.04 628.04016 
L 456.48 635.35824 
L 463.92 642.06648 
L 471.36 648.16488 
L 478.8 653.65344 
L 486.24 658.53216 
L 493.68 662.80104 
L 501.12 666.46008 
L 508.56 669.50928 
L 516 671.3388 
L 523.44 673.16832 
L 530.88 674.388 
L 538.32 674.388 
L 545.76 673.77816 
L 553.2 672.55848 
L 560.64 670.72896 
L 568.08 668.2896 
L 575.52 665.2404 
L 582.96 661.58136 
L 590.4 656.70264 
L 597.84 651.82392 
L 605.28 646.33536 
L 612.72 639.62712 
L 620.16 632.91888 
L 627.6 624.99096 
L 635.04 617.06304 
L 642.48 608.52528 
L 649.92 599.37768 
L 657.36 589.62024 
L 664.8 579.25296 
L 672.24 568.88568 
L 679.68 557.90856 
L 687.12 546.3216 
L 694.56 534.73464 
L 702 522.53784 
L 709.44 509.7312 
L 716.88 497.5344 
L 724.32 484.11792 
L 731.76 471.31128 
L 739.2 457.8948 
L 746.64 444.47832 
L 754.08 430.452 
L 761.52 417.03552 
L 768.96 403.61904 
L 776.4 389.59272 
L 783.84 376.17624 
L 791.28 362.14992 
L 798.72 348.73344 
L 806.16 335.31696 
L 813.6 321.90048 
L 821.04 309.09384 
L 828.48 296.2872 
L 835.92 283.48056 
L 843.36 271.28376 
L 850.8 259.6968 
L 858.24 248.10984 
L 865.68 236.52288 
L 873.12 225.54576 
L 880.56 215.17848 
L 888 205.42104 
L 895.44 196.27344 
L 902.88 187.12584 
L 910.32 178.58808 
L 917.76 170.66016 
L 925.2 163.34208 
L 932.64 157.24368 
L 940.08 151.14528 
L 947.52 145.65672 
L 954.96 140.778 
L 962.4 136.50912 
L 969.84 132.85008 
L 977.28 130.41072 
L 984.72 127.97136 
L 992.16 126.75168 
L 999.6 125.532 
L 1007.04 125.532 
L 1014.48 126.14184 
L 1021.92 127.36152 
L 1029.36 129.19104 
" clip-path="url(#pfa03c53ee8)" style="fill: none; stroke: #800080; stroke-width: 3; stroke-linecap: square"/>
   </g>
   <g id="line2d_15">
    <path d="M 144 251.76888 
L 151.44 268.23456 
L 158.88 285.31008 
L 166.32 302.99544 
L 173.76 321.29064 
L 181.2 339.58584 
L 188.64 358.49088 
L 196.08 378.00576 
L 203.52 396.9108 
L 210.96 416.42568 
L 218.4 435.33072 
L 225.84 454.23576 
L 233.28 473.1408 
L 240.72 491.436 
L 248.16 509.12136 
L 255.6 526.19688 
L 263.04 543.2724 
L 270.48 559.12824 
L 277.92 574.37424 
L 285.36 589.0104 
L 292.8 602.42688 
L 300.24 614.62368 
L 307.68 626.21064 
L 315.12 636.57792 
L 322.56 645.72552 
L 330 653.65344 
L 337.44 660.36168 
L 344.88 665.85024 
L 352.32 670.11912 
L 359.76 672.55848 
L 367.2 674.388 
L 374.64 674.388 
L 382.08 673.16832 
L 389.52 670.72896 
L 396.96 666.46008 
L 404.4 661.58136 
L 411.84 654.87312 
L 419.28 647.55504 
L 426.72 638.40744 
L 434.16 628.04016 
L 441.6 617.06304 
L 449.04 604.86624 
L 456.48 591.44976 
L 463.92 577.42344 
L 471.36 562.17744 
L 478.8 546.3216 
L 486.24 529.85592 
L 493.68 512.17056 
L 501.12 494.4852 
L 508.56 476.19 
L 516 457.8948 
L 523.44 438.98976 
L 530.88 420.08472 
L 538.32 400.56984 
L 545.76 381.6648 
L 553.2 362.14992 
L 560.64 343.24488 
L 568.08 324.94968 
L 575.52 306.65448 
L 582.96 288.35928 
L 590.4 271.28376 
L 597.84 254.81808 
L 605.28 238.96224 
L 612.72 223.71624 
L 620.16 209.68992 
L 627.6 196.27344 
L 635.04 183.4668 
L 642.48 172.48968 
L 649.92 162.1224 
L 657.36 152.9748 
L 664.8 145.65672 
L 672.24 138.94848 
L 679.68 133.45992 
L 687.12 129.80088 
L 694.56 126.75168 
L 702 125.532 
L 709.44 125.532 
L 716.88 127.36152 
L 724.32 129.80088 
L 731.76 134.06976 
L 739.2 138.94848 
L 746.64 145.65672 
L 754.08 153.58464 
L 761.52 162.73224 
L 768.96 173.09952 
L 776.4 184.07664 
L 783.84 196.88328 
L 791.28 210.29976 
L 798.72 224.32608 
L 806.16 239.57208 
L 813.6 255.42792 
L 821.04 272.50344 
L 828.48 289.57896 
L 835.92 307.26432 
L 843.36 325.55952 
L 850.8 344.46456 
L 858.24 363.3696 
L 865.68 382.27464 
L 873.12 401.78952 
L 880.56 420.69456 
L 888 439.5996 
L 895.44 458.50464 
L 902.88 477.40968 
L 910.32 495.70488 
L 917.76 513.39024 
L 925.2 530.46576 
L 932.64 546.93144 
L 940.08 562.78728 
L 947.52 578.03328 
L 954.96 592.0596 
L 962.4 605.47608 
L 969.84 617.67288 
L 977.28 628.65 
L 984.72 639.01728 
L 992.16 647.55504 
L 999.6 655.48296 
L 1007.04 661.58136 
L 1014.48 667.06992 
L 1021.92 670.72896 
L 1029.36 673.16832 
" clip-path="url(#pfa03c53ee8)" style="fill: none; stroke: #008000; stroke-linecap: square"/>
   </g>
   <g id="patch_3">
    <path d="M 144 704.88 
L 144 95.04 
" style="fill: none; stroke: #000000; stroke-width: 0.8; stroke-linejoin: miter; stroke-linecap: square"/>
   </g>
   <g id="patch_4">
    <path d="M 1036.8 704.88 
L 1036.8 95.04 
" style="fill: none; stroke: #000000; stroke-width: 0.8; stroke-linejoin: miter; stroke-linecap: square"/>
   </g>
   <g id="patch_5">
    <path d="M 144 704.88 
L 1036.8 704.88 
" style="fill: none; stroke: #000000; stroke-width: 0.8; stroke-linejoin: miter; stroke-linecap: square"/>
   </g>
   <g id="patch_6">
    <path d="M 144 95.04 
L 1036.8 95.04 
" style="fill: none; stroke: #000000; stroke-width: 0.8; stroke-linejoin: miter; stroke-linecap: square"/>
   </g>
   <g id="text_16">
    <!-- "Real" restaurant quality over time -->
    <g transform="translate(485.577187 89.04)scale(0.12 -0.12)">
     <defs>
      <path id="DejaVuSans-22" d="M 1147 4666 
L 1147 2931 
L 616 2931 
L 616 4666 
L 1147 4666 
z
M 2328 4666 
L 2328 2931 
L 1797 2931 
L 1797 4666 
L 2328 4666 
z
" transform="scale(0.015625)"/>
      <path id="DejaVuSans-6c" d="M 603 4863 
L 1178 4863 
L 1178 0 
L 603 0 
L 603 4863 
z
" transform="scale(0.015625)"/>
      <path id="DejaVuSans-75" d="M 544 1381 
L 544 3500 
L 1119 3500 
L 1119 1403 
Q 1119 906 1312 657 
Q 1506 409 1894 409 
Q 2359 409 2629 706 
Q 2900 1003 2900 1516 
L 2900 3500 
L 3475 3500 
L 3475 0 
L 2900 0 
L 2900 538 
Q 2691 219 2414 64 
Q 2138 -91 1772 -91 
Q 1169 -91 856 284 
Q 544 659 544 1381 
z
M 1991 3584 
L 1991 3584 
z
" transform="scale(0.015625)"/>
      <path id="DejaVuSans-71" d="M 947 1747 
Q 947 1113 1208 752 
Q 1469 391 1925 391 
Q 2381 391 2643 752 
Q 2906 1113 2906 1747 
Q 2906 2381 2643 2742 
Q 2381 3103 1925 3103 
Q 1469 3103 1208 2742 
Q 947 2381 947 1747 
z
M 2906 525 
Q 2725 213 2448 61 
Q 2172 -91 1784 -91 
Q 1150 -91 751 415 
Q 353 922 353 1747 
Q 353 2572 751 3078 
Q 1150 3584 1784 3584 
Q 2172 3584 2448 3432 
Q 2725 3281 2906 2969 
L 2906 3500 
L 3481 3500 
L 3481 -1331 
L 2906 -1331 
L 2906 525 
z
" transform="scale(0.015625)"/>
      <path id="DejaVuSans-79" d="M 2059 -325 
Q 1816 -950 1584 -1140 
Q 1353 -1331 966 -1331 
L 506 -1331 
L 506 -850 
L 844 -850 
Q 1081 -850 1212 -737 
Q 1344 -625 1503 -206 
L 1606 56 
L 191 3500 
L 800 3500 
L 1894 763 
L 2988 3500 
L 3597 3500 
L 2059 -325 
z
" transform="scale(0.015625)"/>
      <path id="DejaVuSans-76" d="M 191 3500 
L 800 3500 
L 1894 563 
L 2988 3500 
L 3597 3500 
L 2284 0 
L 1503 0 
L 191 3500 
z
" transform="scale(0.015625)"/>
      <path id="DejaVuSans-6d" d="M 3328 2828 
Q 3544 3216 3844 3400 
Q 4144 3584 4550 3584 
Q 5097 3584 5394 3201 
Q 5691 2819 5691 2113 
L 5691 0 
L 5113 0 
L 5113 2094 
Q 5113 2597 4934 2840 
Q 4756 3084 4391 3084 
Q 3944 3084 3684 2787 
Q 3425 2491 3425 1978 
L 3425 0 
L 2847 0 
L 2847 2094 
Q 2847 2600 2669 2842 
Q 2491 3084 2119 3084 
Q 1678 3084 1418 2786 
Q 1159 2488 1159 1978 
L 1159 0 
L 581 0 
L 581 3500 
L 1159 3500 
L 1159 2956 
Q 1356 3278 1631 3431 
Q 1906 3584 2284 3584 
Q 2666 3584 2933 3390 
Q 3200 3197 3328 2828 
z
" transform="scale(0.015625)"/>
     </defs>
     <use xlink:href="#DejaVuSans-22"/>
     <use xlink:href="#DejaVuSans-52" x="45.996094"/>
     <use xlink:href="#DejaVuSans-65" x="110.978516"/>
     <use xlink:href="#DejaVuSans-61" x="172.501953"/>
     <use xlink:href="#DejaVuSans-6c" x="233.78125"/>
     <use xlink:href="#DejaVuSans-22" x="261.564453"/>
     <use xlink:href="#DejaVuSans-20" x="307.560547"/>
     <use xlink:href="#DejaVuSans-72" x="339.347656"/>
     <use xlink:href="#DejaVuSans-65" x="378.210938"/>
     <use xlink:href="#DejaVuSans-73" x="439.734375"/>
     <use xlink:href="#DejaVuSans-74" x="491.833984"/>
     <use xlink:href="#DejaVuSans-61" x="531.042969"/>
     <use xlink:href="#DejaVuSans-75" x="592.322266"/>
     <use xlink:href="#DejaVuSans-72" x="655.701172"/>
     <use xlink:href="#DejaVuSans-61" x="696.814453"/>
     <use xlink:href="#DejaVuSans-6e" x="758.09375"/>
     <use xlink:href="#DejaVuSans-74" x="821.472656"/>
     <use xlink:href="#DejaVuSans-20" x="860.681641"/>
     <use xlink:href="#DejaVuSans-71" x="892.46875"/>
     <use xlink:href="#DejaVuSans-75" x="955.945312"/>
     <use xlink:href="#DejaVuSans-61" x="1019.324219"/>
     <use xlink:href="#DejaVuSans-6c" x="1080.603516"/>
     <use xlink:href="#DejaVuSans-69" x="1108.386719"/>
     <use xlink:href="#DejaVuSans-74" x="1136.169922"/>
     <use xlink:href="#DejaVuSans-79" x="1175.378906"/>
     <use xlink:href="#DejaVuSans-20" x="1234.558594"/>
     <use xlink:href="#DejaVuSans-6f" x="1266.345703"/>
     <use xlink:href="#DejaVuSans-76" x="1327.527344"/>
     <use xlink:href="#DejaVuSans-65" x="1386.707031"/>
     <use xlink:href="#DejaVuSans-72" x="1448.230469"/>
     <use xlink:href="#DejaVuSans-20" x="1489.34375"/>
     <use xlink:href="#DejaVuSans-74" x="1521.130859"/>
     <use xlink:href="#DejaVuSans-69" x="1560.339844"/>
     <use xlink:href="#DejaVuSans-6d" x="1588.123047"/>
     <use xlink:href="#DejaVuSans-65" x="1685.535156"/>
    </g>
   </g>
   <g id="legend_1">
    <g id="patch_7">
     <path d="M 151 699.88 
L 303.042188 699.88 
Q 305.042188 699.88 305.042188 697.88 
L 305.042188 669.52375 
Q 305.042188 667.52375 303.042188 667.52375 
L 151 667.52375 
Q 149 667.52375 149 669.52375 
L 149 697.88 
Q 149 699.88 151 699.88 
z
" style="fill: #ffffff; opacity: 0.8; stroke: #cccccc; stroke-linejoin: miter"/>
    </g>
    <g id="line2d_16">
     <path d="M 153 675.622187 
L 163 675.622187 
L 173 675.622187 
" style="fill: none; stroke: #800080; stroke-width: 3; stroke-linecap: square"/>
    </g>
    <g id="text_17">
     <!-- Golden Fork (real score) -->
     <g transform="translate(181 679.122187)scale(0.1 -0.1)">
      <defs>
       <path id="DejaVuSans-47" d="M 3809 666 
L 3809 1919 
L 2778 1919 
L 2778 2438 
L 4434 2438 
L 4434 434 
Q 4069 175 3628 42 
Q 3188 -91 2688 -91 
Q 1594 -91 976 548 
Q 359 1188 359 2328 
Q 359 3472 976 4111 
Q 1594 4750 2688 4750 
Q 3144 4750 3555 4637 
Q 3966 4525 4313 4306 
L 4313 3634 
Q 3963 3931 3569 4081 
Q 3175 4231 2741 4231 
Q 1884 4231 1454 3753 
Q 1025 3275 1025 2328 
Q 1025 1384 1454 906 
Q 1884 428 2741 428 
Q 3075 428 3337 486 
Q 3600 544 3809 666 
z
" transform="scale(0.015625)"/>
       <path id="DejaVuSans-64" d="M 2906 2969 
L 2906 4863 
L 3481 4863 
L 3481 0 
L 2906 0 
L 2906 525 
Q 2725 213 2448 61 
Q 2172 -91 1784 -91 
Q 1150 -91 751 415 
Q 353 922 353 1747 
Q 353 2572 751 3078 
Q 1150 3584 1784 3584 
Q 2172 3584 2448 3432 
Q 2725 3281 2906 2969 
z
M 947 1747 
Q 947 1113 1208 752 
Q 1469 391 1925 391 
Q 2381 391 2643 752 
Q 2906 1113 2906 1747 
Q 2906 2381 2643 2742 
Q 2381 3103 1925 3103 
Q 1469 3103 1208 2742 
Q 947 2381 947 1747 
z
" transform="scale(0.015625)"/>
       <path id="DejaVuSans-46" d="M 628 4666 
L 3309 4666 
L 3309 4134 
L 1259 4134 
L 1259 2759 
L 3109 2759 
L 3109 2228 
L 1259 2228 
L 1259 0 
L 628 0 
L 628 4666 
z
" transform="scale(0.015625)"/>
       <path id="DejaVuSans-6b" d="M 581 4863 
L 1159 4863 
L 1159 1991 
L 2875 3500 
L 3609 3500 
L 1753 1863 
L 3688 0 
L 2938 0 
L 1159 1709 
L 1159 0 
L 581 0 
L 581 4863 
z
" transform="scale(0.015625)"/>
       <path id="DejaVuSans-28" d="M 1984 4856 
Q 1566 4138 1362 3434 
Q 1159 2731 1159 2009 
Q 1159 1288 1364 580 
Q 1569 -128 1984 -844 
L 1484 -844 
Q 1016 -109 783 600 
Q 550 1309 550 2009 
Q 550 2706 781 3412 
Q 1013 4119 1484 4856 
L 1984 4856 
z
" transform="scale(0.015625)"/>
       <path id="DejaVuSans-63" d="M 3122 3366 
L 3122 2828 
Q 2878 2963 2633 3030 
Q 2388 3097 2138 3097 
Q 1578 3097 1268 2742 
Q 959 2388 959 1747 
Q 959 1106 1268 751 
Q 1578 397 2138 397 
Q 2388 397 2633 464 
Q 2878 531 3122 666 
L 3122 134 
Q 2881 22 2623 -34 
Q 2366 -91 2075 -91 
Q 1284 -91 818 406 
Q 353 903 353 1747 
Q 353 2603 823 3093 
Q 1294 3584 2113 3584 
Q 2378 3584 2631 3529 
Q 2884 3475 3122 3366 
z
" transform="scale(0.015625)"/>
       <path id="DejaVuSans-29" d="M 513 4856 
L 1013 4856 
Q 1481 4119 1714 3412 
Q 1947 2706 1947 2009 
Q 1947 1309 1714 600 
Q 1481 -109 1013 -844 
L 513 -844 
Q 928 -128 1133 580 
Q 1338 1288 1338 2009 
Q 1338 2731 1133 3434 
Q 928 4138 513 4856 
z
" transform="scale(0.015625)"/>
      </defs>
      <use xlink:href="#DejaVuSans-47"/>
      <use xlink:href="#DejaVuSans-6f" x="77.490234"/>
      <use xlink:href="#DejaVuSans-6c" x="138.671875"/>
      <use xlink:href="#DejaVuSans-64" x="166.455078"/>
      <use xlink:href="#DejaVuSans-65" x="229.931641"/>
      <use xlink:href="#DejaVuSans-6e" x="291.455078"/>
      <use xlink:href="#DejaVuSans-20" x="354.833984"/>
      <use xlink:href="#DejaVuSans-46" x="386.621094"/>
      <use xlink:href="#DejaVuSans-6f" x="440.515625"/>
      <use xlink:href="#DejaVuSans-72" x="501.697266"/>
      <use xlink:href="#DejaVuSans-6b" x="542.810547"/>
      <use xlink:href="#DejaVuSans-20" x="600.720703"/>
      <use xlink:href="#DejaVuSans-28" x="632.507812"/>
      <use xlink:href="#DejaVuSans-72" x="671.521484"/>
      <use xlink:href="#DejaVuSans-65" x="710.384766"/>
      <use xlink:href="#DejaVuSans-61" x="771.908203"/>
      <use xlink:href="#DejaVuSans-6c" x="833.1875"/>
      <use xlink:href="#DejaVuSans-20" x="860.970703"/>
      <use xlink:href="#DejaVuSans-73" x="892.757812"/>
      <use xlink:href="#DejaVuSans-63" x="944.857422"/>
      <use xlink:href="#DejaVuSans-6f" x="999.837891"/>
      <use xlink:href="#DejaVuSans-72" x="1061.019531"/>
      <use xlink:href="#DejaVuSans-65" x="1099.882812"/>
      <use xlink:href="#DejaVuSans-29" x="1161.40625"/>
     </g>
    </g>
    <g id="line2d_17">
     <path d="M 153 690.300313 
L 163 690.300313 
L 173 690.300313 
" style="fill: none; stroke: #008000; stroke-linecap: square"/>
    </g>
    <g id="text_18">
     <!-- PizzaSmile (real score) -->
     <g transform="translate(181 693.800313)scale(0.1 -0.1)">
      <defs>
       <path id="DejaVuSans-50" d="M 1259 4147 
L 1259 2394 
L 2053 2394 
Q 2494 2394 2734 2622 
Q 2975 2850 2975 3272 
Q 2975 3691 2734 3919 
Q 2494 4147 2053 4147 
L 1259 4147 
z
M 628 4666 
L 2053 4666 
Q 2838 4666 3239 4311 
Q 3641 3956 3641 3272 
Q 3641 2581 3239 2228 
Q 2838 1875 2053 1875 
L 1259 1875 
L 1259 0 
L 628 0 
L 628 4666 
z
" transform="scale(0.015625)"/>
       <path id="DejaVuSans-7a" d="M 353 3500 
L 3084 3500 
L 3084 2975 
L 922 459 
L 3084 459 
L 3084 0 
L 275 0 
L 275 525 
L 2438 3041 
L 353 3041 
L 353 3500 
z
" transform="scale(0.015625)"/>
       <path id="DejaVuSans-53" d="M 3425 4513 
L 3425 3897 
Q 3066 4069 2747 4153 
Q 2428 4238 2131 4238 
Q 1616 4238 1336 4038 
Q 1056 3838 1056 3469 
Q 1056 3159 1242 3001 
Q 1428 2844 1947 2747 
L 2328 2669 
Q 3034 2534 3370 2195 
Q 3706 1856 3706 1288 
Q 3706 609 3251 259 
Q 2797 -91 1919 -91 
Q 1588 -91 1214 -16 
Q 841 59 441 206 
L 441 856 
Q 825 641 1194 531 
Q 1563 422 1919 422 
Q 2459 422 2753 634 
Q 3047 847 3047 1241 
Q 3047 1584 2836 1778 
Q 2625 1972 2144 2069 
L 1759 2144 
Q 1053 2284 737 2584 
Q 422 2884 422 3419 
Q 422 4038 858 4394 
Q 1294 4750 2059 4750 
Q 2388 4750 2728 4690 
Q 3069 4631 3425 4513 
z
" transform="scale(0.015625)"/>
      </defs>
      <use xlink:href="#DejaVuSans-50"/>
      <use xlink:href="#DejaVuSans-69" x="58.052734"/>
      <use xlink:href="#DejaVuSans-7a" x="85.835938"/>
      <use xlink:href="#DejaVuSans-7a" x="138.326172"/>
      <use xlink:href="#DejaVuSans-61" x="190.816406"/>
      <use xlink:href="#DejaVuSans-53" x="252.095703"/>
      <use xlink:href="#DejaVuSans-6d" x="315.572266"/>
      <use xlink:href="#DejaVuSans-69" x="412.984375"/>
      <use xlink:href="#DejaVuSans-6c" x="440.767578"/>
      <use xlink:href="#DejaVuSans-65" x="468.550781"/>
      <use xlink:href="#DejaVuSans-20" x="530.074219"/>
      <use xlink:href="#DejaVuSans-28" x="561.861328"/>
      <use xlink:href="#DejaVuSans-72" x="600.875"/>
      <use xlink:href="#DejaVuSans-65" x="639.738281"/>
      <use xlink:href="#DejaVuSans-61" x="701.261719"/>
      <use xlink:href="#DejaVuSans-6c" x="762.541016"/>
      <use xlink:href="#DejaVuSans-20" x="790.324219"/>
      <use xlink:href="#DejaVuSans-73" x="822.111328"/>
      <use xlink:href="#DejaVuSans-63" x="874.210938"/>
      <use xlink:href="#DejaVuSans-6f" x="929.191406"/>
      <use xlink:href="#DejaVuSans-72" x="990.373047"/>
      <use xlink:href="#DejaVuSans-65" x="1029.236328"/>
      <use xlink:href="#DejaVuSans-29" x="1090.759766"/>
     </g>
    </g>
   </g>
  </g>
 </g>
 <defs>
  <clipPath id="pfa03c53ee8">
   <rect x="144" y="95.04" width="892.8" height="609.84"/>
  </clipPath>
 </defs>
</svg>
